<svg width="11" height="12" viewBox="0 0 11 12" fill="none" xmlns="http://www.w3.org/2000/svg">
<path d="M9.36363 1.6365H9.06818C8.93011 1.6365 8.81818 1.52457 8.81818 1.3865V0.795588C8.81818 0.657517 8.70625 0.545588 8.56818 0.545588H7.43181C7.29374 0.545588 7.18182 0.657517 7.18182 0.795588V1.38648C7.18182 1.52456 7.06988 1.63649 6.9318 1.63648L4.15907 1.63633C4.02101 1.63633 3.90909 1.5244 3.90909 1.38633V0.795437C3.90909 0.657356 3.79714 0.545422 3.65906 0.545437L2.5227 0.545561C2.38464 0.545576 2.27272 0.6575 2.27272 0.795561V1.3865C2.27272 1.52457 2.1608 1.6365 2.02272 1.6365H1.72727C1.43794 1.6365 1.16047 1.75143 0.95588 1.95602C0.751295 2.1606 0.63636 2.43808 0.63636 2.72741V10.3638C0.63636 10.6531 0.751295 10.9306 0.95588 11.1352C1.16047 11.3397 1.43794 11.4547 1.72727 11.4547H9.36363C9.96363 11.4547 10.4545 10.9638 10.4545 10.3638V2.72741C10.4545 2.12741 9.96363 1.6365 9.36363 1.6365ZM5.54545 3.27286C6.45091 3.27286 7.18182 4.00377 7.18182 4.90922C7.18182 5.81468 6.45091 6.54559 5.54545 6.54559C4.64 6.54559 3.90909 5.81468 3.90909 4.90922C3.90909 4.00377 4.64 3.27286 5.54545 3.27286ZM8.81818 9.56832C8.81818 9.70639 8.70625 9.81832 8.56818 9.81832H2.52272C2.38465 9.81832 2.27272 9.70639 2.27272 9.56832V9.27286C2.27272 8.18195 4.45454 7.58195 5.54545 7.58195C6.63636 7.58195 8.81818 8.18195 8.81818 9.27286V9.56832Z" fill="currentColor"/>
</svg>
