<svg width="827" height="827" viewBox="0 0 827 827" fill="none" xmlns="http://www.w3.org/2000/svg">
<g clip-path="url(#clip0_155_28)">
<path d="M641.5 1.5H185.5C83.88 1.5 1.5 83.88 1.5 185.5V641.5C1.5 743.12 83.88 825.5 185.5 825.5H641.5C743.12 825.5 825.5 743.12 825.5 641.5V185.5C825.5 83.88 743.12 1.5 641.5 1.5ZM702.16 659.77C701.67 660.32 700.89 660.51 700.2 660.24L472.01 572.38L415.43 721.85C415.13 722.65 414.3 723.12 413.46 722.96C412.62 722.81 412.01 722.07 412.01 721.22V267.18L366.15 566.5C366.05 567.13 365.63 567.65 365.04 567.88L127.32 660.23C126.63 660.5 125.85 660.31 125.36 659.76C124.87 659.21 124.77 658.42 125.11 657.76L412.2 105.02L412.33 104.81C412.66 104.35 413.2 104.07 413.77 104.07C414.43 104.07 415.04 104.44 415.34 105.02L702.41 657.77C702.75 658.42 702.65 659.22 702.16 659.76V659.77Z" fill="currentColor" stroke="currentColor" stroke-width="3" stroke-linejoin="round"/>
</g>
<defs>
<clipPath id="clip0_155_28">
<rect width="827" height="827" fill="currentColor"/>
</clipPath>
</defs>
</svg>
