<svg width="14" height="18" viewBox="0 0 14 18" fill="none" xmlns="http://www.w3.org/2000/svg">
<g clip-path="url(#clip0_203_20)">
<path d="M13.8597 3.79C13.7497 3.63 13.5697 3.52 13.3797 3.49C12.5897 3.37 11.8097 3.27 11.0197 3.19V2.75C11.0197 2.02 10.7297 1.32 10.2097 0.81C9.68969 0.29 8.98969 0 8.26969 0H5.76969C5.03969 0 4.33969 0.29 3.82969 0.81C3.31969 1.33 3.01969 2.03 3.01969 2.75V3.19C2.21969 3.27 1.43969 3.37 0.659691 3.49C0.559691 3.5 0.469691 3.54 0.379691 3.59C0.289691 3.64 0.219691 3.71 0.159691 3.79C0.0996908 3.87 0.0596908 3.96 0.0296908 4.06C0.00969076 4.16 -0.000309238 4.26 0.0196908 4.36C0.0396908 4.46 0.0696908 4.55 0.119691 4.64C0.169691 4.72 0.239691 4.8 0.319691 4.86C0.399691 4.92 0.489691 4.96 0.589691 4.98C0.689691 5 0.789691 5 0.889691 4.98L1.03969 4.96L1.87969 15.48C1.93969 16.17 2.24969 16.81 2.75969 17.28C3.26969 17.75 3.92969 18.01 4.62969 18.01H9.43969C10.1297 18.01 10.7997 17.75 11.3097 17.28C11.8197 16.81 12.1297 16.17 12.1897 15.48L13.0297 4.96L13.1797 4.98C13.3697 5.01 13.5697 4.96 13.7297 4.84C13.8897 4.72 13.9897 4.55 14.0197 4.35C14.0497 4.16 13.9997 3.96 13.8897 3.8L13.8597 3.79ZM9.10969 9.27H7.76969V15.2C7.76969 15.3 7.72969 15.39 7.65969 15.47C7.58969 15.54 7.48969 15.58 7.38969 15.58H6.63969C6.53969 15.58 6.44969 15.54 6.36969 15.47C6.29969 15.4 6.25969 15.3 6.25969 15.2V9.27H4.91969C4.58969 9.27 4.41969 8.84 4.64969 8.6L6.73969 6.39C6.73969 6.39 6.80969 6.32 6.85969 6.3C6.90969 6.28 6.94969 6.27 6.99969 6.27C7.04969 6.27 7.09969 6.28 7.13969 6.3C7.18969 6.32 7.22969 6.35 7.25969 6.39L9.34969 8.6C9.58969 8.85 9.41969 9.27 9.07969 9.27H9.10969ZM9.50969 3.08C8.67969 3.03 7.84969 3 7.00969 3C6.16969 3 5.33969 3.03 4.50969 3.08V2.75C4.50969 2.06 5.06969 1.5 5.75969 1.5H8.25969C8.94969 1.5 9.50969 2.06 9.50969 2.75V3.08Z" fill="currentColor"/>
</g>
</svg>
